# xmcde
#
# Track frame offsets:
#	150
#	18062
#	36112
#
# Disc length: 678 seconds
#
# Revision: 1
# Processed by: cddbd v1.5.1PL0 Copyright (c) Steve Scherf et al.
# Submitted via: CDValet v3.40 - Copyright (c) 1996 - 1998 Greg Leichner
#
DISCID=1502a403
DTITLE=Macy Gray - Sexual Revolution
DYEAR=1900
DGENRE=
TTITLE0=Sexual Revolution (radio edit w/ short intro)
TTITLE1=Sexual Revolution (radio edit w/ full intro)
TTITLE2=Sexual Revolution (radio edit w/ no intro)
EXTD=Epic\nesk 32751\n(c) 2001\n\nmdb\n
EXTT0=
EXTT1=
EXTT2=
PLAYORDER=
